{
  "accessors": [
    {
      "name": "9-248-588-LoD12-3D-Mesh_0_positions",
      "componentType": 5126,
      "count": 12384,
      "min": [
        -174.92100524902344,
        -2.30800199508667,
        -786.6873779296875
      ],
      "max": [
        863.7039794921875,
        5.462997913360596,
        246.80477905273438
      ],
      "type": "VEC3",
      "bufferView": 0,
      "byteOffset": 0
    },
    {
      "name": "9-248-588-LoD12-3D-Mesh_0_normals",
      "componentType": 5126,
      "count": 12384,
      "min": [
        0,
        -1,
        0
      ],
      "max": [
        0,
        -1,
        0
      ],
      "type": "VEC3",
      "bufferView": 1,
      "byteOffset": 0
    },
    {
      "name": "9-248-588-LoD12-3D-Mesh_0_indices",
      "componentType": 5123,
      "count": 27270,
      "min": [
        0
      ],
      "max": [
        12383
      ],
      "type": "SCALAR",
      "bufferView": 2,
      "byteOffset": 0
    },
    {
      "name": "9-248-588-LoD12-3D-Mesh_1_positions",
      "componentType": 5126,
      "count": 52030,
      "min": [
        -174.92100524902344,
        -2.30800199508667,
        -786.6873779296875
      ],
      "max": [
        863.7039794921875,
        23.997997283935547,
        246.80477905273438
      ],
      "type": "VEC3",
      "bufferView": 0,
      "byteOffset": 148608
    },
    {
      "name": "9-248-588-LoD12-3D-Mesh_1_normals",
      "componentType": 5126,
      "count": 52030,
      "min": [
        -1,
        0,
        -1
      ],
      "max": [
        1,
        0.00009999959002016112,
        0.9999880194664001
      ],
      "type": "VEC3",
      "bufferView": 1,
      "byteOffset": 148608
    },
    {
      "name": "9-248-588-LoD12-3D-Mesh_1_indices",
      "componentType": 5123,
      "count": 74982,
      "min": [
        0
      ],
      "max": [
        52029
      ],
      "type": "SCALAR",
      "bufferView": 2,
      "byteOffset": 54540
    },
    {
      "name": "9-248-588-LoD12-3D-Mesh_2_positions",
      "componentType": 5126,
      "count": 12438,
      "min": [
        -174.92100524902344,
        0.7509980201721191,
        -786.6873779296875
      ],
      "max": [
        863.7039794921875,
        23.997997283935547,
        246.80477905273438
      ],
      "type": "VEC3",
      "bufferView": 0,
      "byteOffset": 772968
    },
    {
      "name": "9-248-588-LoD12-3D-Mesh_2_normals",
      "componentType": 5126,
      "count": 12438,
      "min": [
        0,
        1,
        -0.00019999999494757503
      ],
      "max": [
        0,
        1,
        0
      ],
      "type": "VEC3",
      "bufferView": 1,
      "byteOffset": 772968
    },
    {
      "name": "9-248-588-LoD12-3D-Mesh_2_indices",
      "componentType": 5123,
      "count": 27270,
      "min": [
        0
      ],
      "max": [
        12437
      ],
      "type": "SCALAR",
      "bufferView": 2,
      "byteOffset": 204504
    }
  ],
  "asset": {
    "generator": "obj2gltf",
    "version": "2.0"
  },
  "buffers": [
    {
      "name": "baimo12",
      "byteLength": 2103492,
      "uri": "data:application/octet-stream;base64,"
    }
  ],
  "bufferViews": [
    {
      "name": "bufferView_0",
      "buffer": 0,
      "byteLength": 922224,
      "byteOffset": 0,
      "byteStride": 12,
      "target": 34962
    },
    {
      "name": "bufferView_1",
      "buffer": 0,
      "byteLength": 922224,
      "byteOffset": 922224,
      "byteStride": 12,
      "target": 34962
    },
    {
      "name": "bufferView_2",
      "buffer": 0,
      "byteLength": 259044,
      "byteOffset": 1844448,
      "target": 34963
    }
  ],
  "materials": [
    {
      "name": "1.002",
      "pbrMetallicRoughness": {
        "baseColorFactor": [
          0.87,
          0.26,
          0.28,
          1
        ],
        "metallicFactor": 0,
        "roughnessFactor": 0.939999992
      },
      "emissiveFactor": [
        0,
        0,
        0
      ],
      "alphaMode": "OPAQUE",
      "doubleSided": false
    },
    {
      "name": "2.002",
      "pbrMetallicRoughness": {
        "baseColorFactor": [
          0.9,
          0.9,
          0.75,
          1
        ],
        "metallicFactor": 0,
        "roughnessFactor": 0.939999992
      },
      "emissiveFactor": [
        0,
        0,
        0
      ],
      "alphaMode": "OPAQUE",
      "doubleSided": false
    },
    {
      "name": "0.002",
      "pbrMetallicRoughness": {
        "baseColorFactor": [
          0.6,
          0.6,
          0.6,
          1
        ],
        "metallicFactor": 0,
        "roughnessFactor": 0.939999992
      },
      "emissiveFactor": [
        0,
        0,
        0
      ],
      "alphaMode": "OPAQUE",
      "doubleSided": false
    }
  ],
  "meshes": [
    {
      "name": "9-248-588-LoD12-3D-Mesh",
      "primitives": [
        {
          "attributes": {
            "POSITION": 0,
            "NORMAL": 1
          },
          "indices": 2,
          "material": 0,
          "mode": 4
        },
        {
          "attributes": {
            "POSITION": 3,
            "NORMAL": 4
          },
          "indices": 5,
          "material": 1,
          "mode": 4
        },
        {
          "attributes": {
            "POSITION": 6,
            "NORMAL": 7
          },
          "indices": 8,
          "material": 2,
          "mode": 4
        }
      ]
    }
  ],
  "nodes": [
    {
      "name": "9-248-588-LoD12-3D",
      "mesh": 0
    }
  ],
  "scene": 0,
  "scenes": [
    {
      "nodes": [
        0
      ]
    }
  ]
}
