{
  "accessors": [
    {
      "name": "9-248-588-LoD13-3D-Mesh_0_positions",
      "componentType": 5126,
      "count": 13500,
      "min": [
        -174.9219970703125,
        -2.3079559803009033,
        -786.688232421875
      ],
      "max": [
        863.7030029296875,
        5.463044166564941,
        246.8039093017578
      ],
      "type": "VEC3",
      "bufferView": 0,
      "byteOffset": 0
    },
    {
      "name": "9-248-588-LoD13-3D-Mesh_0_normals",
      "componentType": 5126,
      "count": 13500,
      "min": [
        0,
        -1,
        -0.00009999999747378752
      ],
      "max": [
        0,
        -1,
        0
      ],
      "type": "VEC3",
      "bufferView": 1,
      "byteOffset": 0
    },
    {
      "name": "9-248-588-LoD13-3D-Mesh_0_indices",
      "componentType": 5125,
      "count": 30612,
      "min": [
        0
      ],
      "max": [
        13499
      ],
      "type": "SCALAR",
      "bufferView": 2,
      "byteOffset": 0
    },
    {
      "name": "9-248-588-LoD13-3D-Mesh_1_positions",
      "componentType": 5126,
      "count": 65770,
      "min": [
        -174.9219970703125,
        -2.3079559803009033,
        -786.688232421875
      ],
      "max": [
        863.7030029296875,
        27.136043548583984,
        246.8039093017578
      ],
      "type": "VEC3",
      "bufferView": 0,
      "byteOffset": 162000
    },
    {
      "name": "9-248-588-LoD13-3D-Mesh_1_normals",
      "componentType": 5126,
      "count": 65770,
      "min": [
        -1,
        -0.0001000000411295332,
        -1
      ],
      "max": [
        1,
        0,
        1
      ],
      "type": "VEC3",
      "bufferView": 1,
      "byteOffset": 162000
    },
    {
      "name": "9-248-588-LoD13-3D-Mesh_1_indices",
      "componentType": 5125,
      "count": 95544,
      "min": [
        0
      ],
      "max": [
        65769
      ],
      "type": "SCALAR",
      "bufferView": 2,
      "byteOffset": 122448
    },
    {
      "name": "9-248-588-LoD13-3D-Mesh_2_positions",
      "componentType": 5126,
      "count": 16907,
      "min": [
        -174.9219970703125,
        -0.3859559893608093,
        -786.688232421875
      ],
      "max": [
        863.7030029296875,
        27.136043548583984,
        246.8039093017578
      ],
      "type": "VEC3",
      "bufferView": 0,
      "byteOffset": 951240
    },
    {
      "name": "9-248-588-LoD13-3D-Mesh_2_normals",
      "componentType": 5126,
      "count": 16907,
      "min": [
        -0.7381041646003723,
        -0.36470305919647217,
        0
      ],
      "max": [
        0.0032999699469655752,
        1,
        0.6710037589073181
      ],
      "type": "VEC3",
      "bufferView": 1,
      "byteOffset": 951240
    },
    {
      "name": "9-248-588-LoD13-3D-Mesh_2_indices",
      "componentType": 5125,
      "count": 37008,
      "min": [
        0
      ],
      "max": [
        16906
      ],
      "type": "SCALAR",
      "bufferView": 2,
      "byteOffset": 504624
    }
  ],
  "asset": {
    "generator": "obj2gltf",
    "version": "2.0"
  },
  "buffers": [
    {
      "name": "baimo13",
      "byteLength": 2960904,
      "uri": "data:application/octet-stream;base64,"
    }
  ],
  "bufferViews": [
    {
      "name": "bufferView_0",
      "buffer": 0,
      "byteLength": 1154124,
      "byteOffset": 0,
      "byteStride": 12,
      "target": 34962
    },
    {
      "name": "bufferView_1",
      "buffer": 0,
      "byteLength": 1154124,
      "byteOffset": 1154124,
      "byteStride": 12,
      "target": 34962
    },
    {
      "name": "bufferView_2",
      "buffer": 0,
      "byteLength": 652656,
      "byteOffset": 2308248,
      "target": 34963
    }
  ],
  "materials": [
    {
      "name": "1.003",
      "pbrMetallicRoughness": {
        "baseColorFactor": [
          0.87,
          0.26,
          0.28,
          1
        ],
        "metallicFactor": 0,
        "roughnessFactor": 0.939999992
      },
      "emissiveFactor": [
        0,
        0,
        0
      ],
      "alphaMode": "OPAQUE",
      "doubleSided": false
    },
    {
      "name": "2.003",
      "pbrMetallicRoughness": {
        "baseColorFactor": [
          0.9,
          0.9,
          0.75,
          1
        ],
        "metallicFactor": 0,
        "roughnessFactor": 0.939999992
      },
      "emissiveFactor": [
        0,
        0,
        0
      ],
      "alphaMode": "OPAQUE",
      "doubleSided": false
    },
    {
      "name": "0.003",
      "pbrMetallicRoughness": {
        "baseColorFactor": [
          0.6,
          0.6,
          0.6,
          1
        ],
        "metallicFactor": 0,
        "roughnessFactor": 0.939999992
      },
      "emissiveFactor": [
        0,
        0,
        0
      ],
      "alphaMode": "OPAQUE",
      "doubleSided": false
    }
  ],
  "meshes": [
    {
      "name": "9-248-588-LoD13-3D-Mesh",
      "primitives": [
        {
          "attributes": {
            "POSITION": 0,
            "NORMAL": 1
          },
          "indices": 2,
          "material": 0,
          "mode": 4
        },
        {
          "attributes": {
            "POSITION": 3,
            "NORMAL": 4
          },
          "indices": 5,
          "material": 1,
          "mode": 4
        },
        {
          "attributes": {
            "POSITION": 6,
            "NORMAL": 7
          },
          "indices": 8,
          "material": 2,
          "mode": 4
        }
      ]
    }
  ],
  "nodes": [
    {
      "name": "9-248-588-LoD13-3D",
      "mesh": 0
    }
  ],
  "scene": 0,
  "scenes": [
    {
      "nodes": [
        0
      ]
    }
  ]
}
